Storyline

Sam, a college student in a small Northwestern town, reluctantly joins his roommates in a contest to see who can hook up with the most gorgeous co-eds by the end of the semester. But when men slowly start disappearing around town, he and his friends learn that when it comes to beautiful women, it's what's inside that really matters. 


MULTI AUDIO:  ENGLISH,  PORTUGUESE,  FRENCH



SUBTITLES:  ENGLISH,  FRENCH,  JAPANESE,  PORTUGUESE,  SPANISH,  KOREAN,  CHINESE


Format                                   : Matroska
Format version                           : Version 2
File size                                : 1.48 GiB
Duration                                 : 1h 34mn
Overall bit rate                         : 2 252 Kbps
Writing application                      : HandBrake 0.9.8
Writing library                          : libmkv 0.6.5

Video
ID                                       : 1
Format                                   : AVC
Format/Info                              : Advanced Video Codec
Format profile                           : Main@L3.0
Format settings, CABAC                   : Yes
Format settings, ReFrames                : 4 frames
Codec ID                                 : V_MPEG4/ISO/AVC
Duration                                 : 1h 34mn
Bit rate                                 : 799 Kbps
Width                                    : 720 pixels
Height                                   : 464 pixels
Display aspect ratio                     : 16:9
Frame rate mode                          : Variable
Frame rate                               : 23.976 fps
Color space                              : YUV
Chroma subsampling                       : 4:2:0
Bit depth                                : 8 bits
Scan type                                : Progressive
Bits/(Pixel*Frame)                       : 0.100
Stream size                              : 538 MiB (35%)
Writing library                          : x264 core 120

Language                                 : English
Default                                  : Yes
Forced                                   : No
Color primaries                          : BT.601-6 525, BT.1358 525, BT.1700 NTSC, SMPTE 170M
Transfer characteristics                 : BT.709-5, BT.1361
Matrix coefficients                      : BT.601-6 525, BT.1358 525, BT.1700 NTSC, SMPTE 170M

Audio #1
ID                                       : 2
Format                                   : AC-3
Format/Info                              : Audio Coding 3
Mode extension                           : CM (complete main)
Codec ID                                 : A_AC3
Duration                                 : 1h 34mn
Bit rate mode                            : Constant
Bit rate                                 : 448 Kbps
Channel(s)                               : 6 channels
Channel positions                        : Front: L C R, Side: L R, LFE
Sampling rate                            : 48.0 KHz
Bit depth                                : 16 bits
Compression mode                         : Lossy
Stream size                              : 301 MiB (20%)
Language                                 : English
Default                                  : Yes
Forced                                   : No